<svg xmlns="http://www.w3.org/2000/svg" xmlns:xlink="http://www.w3.org/1999/xlink" viewBox="0 0 28.57 28.57"><defs><style>.cls-1{isolation:isolate;}.cls-2{fill:url(#linear-gradient);}.cls-3,.cls-6{fill:#ad7018;}.cls-4{fill:#da993b;}.cls-5{mix-blend-mode:screen;fill:url(#linear-gradient-2);}.cls-6{mix-blend-mode:multiply;}</style><linearGradient id="linear-gradient" x1="14.29" y1="0.51" x2="14.29" y2="29.14" gradientUnits="userSpaceOnUse"><stop offset="0" stop-color="#feeb6a"/><stop offset="0.11" stop-color="#fedd48"/><stop offset="0.18" stop-color="#fed636"/><stop offset="0.42" stop-color="#fdee80"/><stop offset="0.47" stop-color="#fdec7a"/><stop offset="0.52" stop-color="#fce468"/><stop offset="0.59" stop-color="#fcd94c"/><stop offset="0.66" stop-color="#fbc924"/><stop offset="0.66" stop-color="#fbc822"/><stop offset="1" stop-color="#e17f02"/></linearGradient><linearGradient id="linear-gradient-2" x1="13.66" y1="9.79" x2="13.66" y2="23.07" gradientTransform="translate(0.82 -2.33) rotate(0.67)" gradientUnits="userSpaceOnUse"><stop offset="0" stop-color="#c9c9c9"/><stop offset="0.44" stop-color="#a59d8b"/><stop offset="0.81" stop-color="#8a7d5d"/><stop offset="1" stop-color="#80704b"/></linearGradient></defs><title>Golden star</title><g class="cls-1"><g id="Layer_1" data-name="Layer 1"><path class="cls-2" d="M28.57,15A14.29,14.29,0,1,1,14.45.51,14.29,14.29,0,0,1,28.57,15Z" transform="translate(0 -0.51)"/><path class="cls-3" d="M23.66,14.9A9.38,9.38,0,1,1,14.4,5.42,9.37,9.37,0,0,1,23.66,14.9Z" transform="translate(0 -0.51)"/><path class="cls-4" d="M23.66,14.9a9.38,9.38,0,1,1-18.75-.22C5,9.51,9.22,5.79,14.39,5.85S23.72,9.72,23.66,14.9Z" transform="translate(0 -0.51)"/><polygon class="cls-5" points="14.38 6.79 16.75 11.75 22.19 12.61 18.2 16.41 19.07 21.84 14.23 19.22 9.33 21.73 10.32 16.31 6.42 12.42 11.88 11.7 14.38 6.79"/><polygon class="cls-6" points="14.23 18.94 9.39 21.41 9.33 21.73 14.23 19.22 19.07 21.84 19.02 21.52 14.23 18.94"/><polygon class="cls-6" points="10.32 16.03 6.68 12.39 6.42 12.42 10.28 16.27 10.32 16.03"/><polygon class="cls-6" points="18.21 16.12 18.25 16.36 22.19 12.61 21.94 12.57 18.21 16.12"/></g></g></svg>