<?xml version="1.0" encoding="utf-8"?>
<!-- Generator: Adobe Illustrator 23.0.5, SVG Export Plug-In . SVG Version: 6.00 Build 0)  -->
<svg version="1.1" id="Layer_1" xmlns="http://www.w3.org/2000/svg" xmlns:xlink="http://www.w3.org/1999/xlink" x="0px" y="0px"
	 viewBox="0 0 75 75" style="enable-background:new 0 0 75 75;" xml:space="preserve">
<style type="text/css">
	.st0{fill:url(#SVGID_1_);}
	.st1{fill:url(#SVGID_2_);}
	.st2{fill:url(#SVGID_3_);}
	.st3{fill:url(#SVGID_4_);}
	.st4{clip-path:url(#SVGID_6_);}
	.st5{fill:url(#SVGID_7_);}
	.st6{fill:url(#SVGID_8_);}
	.st7{fill:url(#SVGID_9_);}
	.st8{fill:url(#SVGID_10_);}
	.st9{fill:url(#SVGID_11_);}
	.st10{fill:url(#SVGID_12_);}
	.st11{fill:url(#SVGID_13_);}
	.st12{fill:url(#SVGID_14_);}
	.st13{fill:url(#SVGID_15_);}
	.st14{fill:url(#SVGID_16_);}
	.st15{fill:url(#SVGID_17_);}
	.st16{fill:url(#SVGID_18_);}
	.st17{fill:url(#SVGID_19_);}
	.st18{fill:url(#SVGID_20_);}
	.st19{fill:url(#SVGID_21_);}
	.st20{fill:url(#SVGID_22_);}
	.st21{fill:url(#SVGID_23_);}
	.st22{fill:url(#SVGID_24_);}
	.st23{fill:url(#SVGID_25_);}
	.st24{fill:#009444;}
	.st25{opacity:0.42;fill:url(#SVGID_26_);}
	.st26{fill:#FFC030;}
</style>
<g>
	<g>
		<linearGradient id="SVGID_1_" gradientUnits="userSpaceOnUse" x1="37.9498" y1="0.7489" x2="37.9498" y2="73.3988">
			<stop  offset="0" style="stop-color:#FFFF00"/>
			<stop  offset="0.0537" style="stop-color:#FFF500"/>
			<stop  offset="0.2355" style="stop-color:#FFD600"/>
			<stop  offset="0.3906" style="stop-color:#FFC400"/>
			<stop  offset="0.5" style="stop-color:#FFBD00"/>
			<stop  offset="0.5297" style="stop-color:#FBA600"/>
			<stop  offset="0.5561" style="stop-color:#F68E00"/>
			<stop  offset="1" style="stop-color:#C36300"/>
		</linearGradient>
		<ellipse class="st0" cx="37.95" cy="37.74" rx="36.28" ry="36.16"/>
		<linearGradient id="SVGID_2_" gradientUnits="userSpaceOnUse" x1="37.9498" y1="1.6882" x2="37.9498" y2="72.4936">
			<stop  offset="0" style="stop-color:#FFDF00"/>
			<stop  offset="0.0377" style="stop-color:#FFD600"/>
			<stop  offset="0.1382" style="stop-color:#FFC400"/>
			<stop  offset="0.2092" style="stop-color:#FFBD00"/>
			<stop  offset="0.5526" style="stop-color:#FFA600"/>
			<stop  offset="0.8571" style="stop-color:#FF8E00"/>
		</linearGradient>
		<ellipse class="st1" cx="37.95" cy="37.74" rx="35.36" ry="35.24"/>
		<linearGradient id="SVGID_3_" gradientUnits="userSpaceOnUse" x1="37.9498" y1="0.7489" x2="37.9498" y2="73.3988">
			<stop  offset="0" style="stop-color:#FFFFFF"/>
			<stop  offset="2.403617e-03" style="stop-color:#FFFFFF"/>
			<stop  offset="0.2051" style="stop-color:#E0E0E0"/>
			<stop  offset="0.3781" style="stop-color:#CECECE"/>
			<stop  offset="0.5" style="stop-color:#C7C7C7"/>
			<stop  offset="0.7275" style="stop-color:#DEDEDE"/>
			<stop  offset="1" style="stop-color:#FFFFFF"/>
		</linearGradient>
		<path class="st2" d="M37.95,1.59c-20.04,0-36.28,16.19-36.28,36.16S17.91,73.9,37.95,73.9s36.28-16.19,36.28-36.16
			S57.99,1.59,37.95,1.59z M37.95,63.94c-14.52,0-26.29-11.73-26.29-26.2s11.77-26.2,26.29-26.2s26.29,11.73,26.29,26.2
			S52.47,63.94,37.95,63.94z"/>
		
			<radialGradient id="SVGID_4_" cx="37.9498" cy="28.6699" r="27.2213" gradientTransform="matrix(1 0 0 0.9965 0 9.1734)" gradientUnits="userSpaceOnUse">
			<stop  offset="0.8929" style="stop-color:#929292"/>
			<stop  offset="0.9257" style="stop-color:#5F5F5F"/>
			<stop  offset="0.9592" style="stop-color:#2F2F2F"/>
			<stop  offset="1" style="stop-color:#FFFFFF"/>
		</radialGradient>
		<ellipse class="st3" cx="37.95" cy="37.74" rx="27.22" ry="27.13"/>
		<g>
			<defs>
				<ellipse id="SVGID_5_" cx="37.95" cy="37.74" rx="26.55" ry="26.46"/>
			</defs>
			<clipPath id="SVGID_6_">
				<use xlink:href="#SVGID_5_"  style="overflow:visible;"/>
			</clipPath>
			<g class="st4">
				<g>
					
						<radialGradient id="SVGID_7_" cx="37.9865" cy="28.3968" r="26.4046" gradientTransform="matrix(1 0 0 0.9965 0 9.1734)" gradientUnits="userSpaceOnUse">
						<stop  offset="0.8978" style="stop-color:#A1A1A1"/>
						<stop  offset="0.9019" style="stop-color:#ABABAB"/>
						<stop  offset="0.9097" style="stop-color:#B8B8B8"/>
						<stop  offset="0.9199" style="stop-color:#C0C0C0"/>
						<stop  offset="0.9412" style="stop-color:#C2C2C2"/>
						<stop  offset="0.951" style="stop-color:#B7B7B7"/>
						<stop  offset="0.9682" style="stop-color:#999999"/>
						<stop  offset="0.9909" style="stop-color:#686868"/>
						<stop  offset="1" style="stop-color:#535353"/>
					</radialGradient>
					<path class="st5" d="M41.02,14.26c0.32,0,0.58-0.2,0.58-0.45v-2.28c0-0.25-0.26-0.45-0.58-0.45h-6.15
						c-0.32,0-0.58,0.2-0.58,0.45v2.28c0,0.25,0.26,0.45,0.58,0.45H41.02z"/>
					
						<radialGradient id="SVGID_8_" cx="37.9865" cy="375.2844" r="26.4046" gradientTransform="matrix(1 0 0 -0.9965 0 411.8897)" gradientUnits="userSpaceOnUse">
						<stop  offset="0.8978" style="stop-color:#A1A1A1"/>
						<stop  offset="0.9019" style="stop-color:#ABABAB"/>
						<stop  offset="0.9097" style="stop-color:#B8B8B8"/>
						<stop  offset="0.9199" style="stop-color:#C0C0C0"/>
						<stop  offset="0.9412" style="stop-color:#C2C2C2"/>
						<stop  offset="0.951" style="stop-color:#B7B7B7"/>
						<stop  offset="0.9682" style="stop-color:#999999"/>
						<stop  offset="0.9909" style="stop-color:#686868"/>
						<stop  offset="1" style="stop-color:#535353"/>
					</radialGradient>
					<path class="st6" d="M41.02,61.12c0.32,0,0.58,0.2,0.58,0.45v2.28c0,0.25-0.26,0.45-0.58,0.45h-6.15
						c-0.32,0-0.58-0.2-0.58-0.45v-2.28c0-0.25,0.26-0.45,0.58-0.45H41.02z"/>
				</g>
				<g>
					
						<radialGradient id="SVGID_9_" cx="31.4515" cy="29.1379" r="26.4056" gradientTransform="matrix(0.9262 0.3758 -0.3771 0.923 19.9234 -1.2087)" gradientUnits="userSpaceOnUse">
						<stop  offset="0.8978" style="stop-color:#A1A1A1"/>
						<stop  offset="0.9019" style="stop-color:#ABABAB"/>
						<stop  offset="0.9097" style="stop-color:#B8B8B8"/>
						<stop  offset="0.9199" style="stop-color:#C0C0C0"/>
						<stop  offset="0.9412" style="stop-color:#C2C2C2"/>
						<stop  offset="0.951" style="stop-color:#B7B7B7"/>
						<stop  offset="0.9682" style="stop-color:#999999"/>
						<stop  offset="0.9909" style="stop-color:#686868"/>
						<stop  offset="1" style="stop-color:#535353"/>
					</radialGradient>
					<path class="st7" d="M49.66,17.15c0.3,0.12,0.62,0.03,0.71-0.2l0.86-2.11c0.09-0.23-0.07-0.52-0.37-0.64l-5.69-2.31
						c-0.3-0.12-0.62-0.03-0.71,0.2L43.6,14.2c-0.09,0.23,0.07,0.52,0.37,0.64L49.66,17.15z"/>
					
						<radialGradient id="SVGID_10_" cx="30.9103" cy="374.1218" r="26.4057" gradientTransform="matrix(0.9262 0.3758 0.3771 -0.923 -131.8092 371.599)" gradientUnits="userSpaceOnUse">
						<stop  offset="0.8978" style="stop-color:#A1A1A1"/>
						<stop  offset="0.9019" style="stop-color:#ABABAB"/>
						<stop  offset="0.9097" style="stop-color:#B8B8B8"/>
						<stop  offset="0.9199" style="stop-color:#C0C0C0"/>
						<stop  offset="0.9412" style="stop-color:#C2C2C2"/>
						<stop  offset="0.951" style="stop-color:#B7B7B7"/>
						<stop  offset="0.9682" style="stop-color:#999999"/>
						<stop  offset="0.9909" style="stop-color:#686868"/>
						<stop  offset="1" style="stop-color:#535353"/>
					</radialGradient>
					<path class="st8" d="M31.93,60.55c0.3,0.12,0.46,0.41,0.37,0.64l-0.86,2.11c-0.09,0.23-0.41,0.32-0.71,0.2l-5.69-2.31
						c-0.3-0.12-0.46-0.41-0.37-0.64l0.86-2.11c0.09-0.23,0.41-0.32,0.71-0.2L31.93,60.55z"/>
				</g>
				<g>
					
						<radialGradient id="SVGID_11_" cx="25.1862" cy="32.727" r="26.4032" gradientTransform="matrix(0.7157 0.6961 -0.6985 0.7132 42.9641 -3.3102)" gradientUnits="userSpaceOnUse">
						<stop  offset="0.8978" style="stop-color:#A1A1A1"/>
						<stop  offset="0.9019" style="stop-color:#ABABAB"/>
						<stop  offset="0.9097" style="stop-color:#B8B8B8"/>
						<stop  offset="0.9199" style="stop-color:#C0C0C0"/>
						<stop  offset="0.9412" style="stop-color:#C2C2C2"/>
						<stop  offset="0.951" style="stop-color:#B7B7B7"/>
						<stop  offset="0.9682" style="stop-color:#999999"/>
						<stop  offset="0.9909" style="stop-color:#686868"/>
						<stop  offset="1" style="stop-color:#535353"/>
					</radialGradient>
					<path class="st9" d="M56.57,23.06c0.23,0.22,0.56,0.26,0.74,0.08l1.6-1.63c0.18-0.18,0.13-0.51-0.1-0.73l-4.4-4.28
						c-0.23-0.22-0.56-0.26-0.74-0.08l-1.6,1.63c-0.18,0.18-0.13,0.51,0.1,0.73L56.57,23.06z"/>
					
						<radialGradient id="SVGID_12_" cx="25.2558" cy="369.879" r="26.4031" gradientTransform="matrix(0.7157 0.6961 0.6985 -0.7132 -238.6158 284.0981)" gradientUnits="userSpaceOnUse">
						<stop  offset="0.8978" style="stop-color:#A1A1A1"/>
						<stop  offset="0.9019" style="stop-color:#ABABAB"/>
						<stop  offset="0.9097" style="stop-color:#B8B8B8"/>
						<stop  offset="0.9199" style="stop-color:#C0C0C0"/>
						<stop  offset="0.9412" style="stop-color:#C2C2C2"/>
						<stop  offset="0.951" style="stop-color:#B7B7B7"/>
						<stop  offset="0.9682" style="stop-color:#999999"/>
						<stop  offset="0.9909" style="stop-color:#686868"/>
						<stop  offset="1" style="stop-color:#535353"/>
					</radialGradient>
					<path class="st10" d="M23.72,56.6c0.23,0.22,0.27,0.55,0.1,0.73l-1.6,1.63c-0.18,0.18-0.51,0.14-0.74-0.08l-4.4-4.28
						c-0.23-0.22-0.27-0.55-0.1-0.73l1.6-1.63c0.18-0.18,0.51-0.14,0.74,0.08L23.72,56.6z"/>
				</g>
				<g>
					
						<radialGradient id="SVGID_13_" cx="21.7238" cy="39.346" r="26.408" gradientTransform="matrix(0.3995 0.9135 -0.9167 0.3981 65.554 2.1338)" gradientUnits="userSpaceOnUse">
						<stop  offset="0.8978" style="stop-color:#A1A1A1"/>
						<stop  offset="0.9019" style="stop-color:#ABABAB"/>
						<stop  offset="0.9097" style="stop-color:#B8B8B8"/>
						<stop  offset="0.9199" style="stop-color:#C0C0C0"/>
						<stop  offset="0.9412" style="stop-color:#C2C2C2"/>
						<stop  offset="0.951" style="stop-color:#B7B7B7"/>
						<stop  offset="0.9682" style="stop-color:#999999"/>
						<stop  offset="0.9909" style="stop-color:#686868"/>
						<stop  offset="1" style="stop-color:#535353"/>
					</radialGradient>
					<path class="st11" d="M60.73,31.14c0.13,0.29,0.42,0.45,0.65,0.35l2.1-0.91c0.23-0.1,0.31-0.42,0.19-0.71l-2.45-5.61
						c-0.13-0.29-0.42-0.45-0.65-0.35l-2.1,0.91c-0.23,0.1-0.31,0.42-0.19,0.71L60.73,31.14z"/>
					
						<radialGradient id="SVGID_14_" cx="22.5433" cy="364.8488" r="26.4079" gradientTransform="matrix(0.3995 0.9135 0.9167 -0.3981 -305.702 162.4705)" gradientUnits="userSpaceOnUse">
						<stop  offset="0.8978" style="stop-color:#A1A1A1"/>
						<stop  offset="0.9019" style="stop-color:#ABABAB"/>
						<stop  offset="0.9097" style="stop-color:#B8B8B8"/>
						<stop  offset="0.9199" style="stop-color:#C0C0C0"/>
						<stop  offset="0.9412" style="stop-color:#C2C2C2"/>
						<stop  offset="0.951" style="stop-color:#B7B7B7"/>
						<stop  offset="0.9682" style="stop-color:#999999"/>
						<stop  offset="0.9909" style="stop-color:#686868"/>
						<stop  offset="1" style="stop-color:#535353"/>
					</radialGradient>
					<path class="st12" d="M17.62,49.86c0.13,0.29,0.04,0.61-0.19,0.71l-2.1,0.91c-0.23,0.1-0.52-0.06-0.65-0.35l-2.45-5.61
						c-0.13-0.29-0.04-0.61,0.19-0.71l2.1-0.91c0.23-0.1,0.52,0.06,0.65,0.35L17.62,49.86z"/>
				</g>
				<g>
					
						<radialGradient id="SVGID_15_" cx="20.4978" cy="45.1558" r="26.4055" gradientTransform="matrix(0.0243 0.9962 -0.9997 0.0242 82.8129 16.2126)" gradientUnits="userSpaceOnUse">
						<stop  offset="0.8978" style="stop-color:#A1A1A1"/>
						<stop  offset="0.9019" style="stop-color:#ABABAB"/>
						<stop  offset="0.9097" style="stop-color:#B8B8B8"/>
						<stop  offset="0.9199" style="stop-color:#C0C0C0"/>
						<stop  offset="0.9412" style="stop-color:#C2C2C2"/>
						<stop  offset="0.951" style="stop-color:#B7B7B7"/>
						<stop  offset="0.9682" style="stop-color:#999999"/>
						<stop  offset="0.9909" style="stop-color:#686868"/>
						<stop  offset="1" style="stop-color:#535353"/>
					</radialGradient>
					<path class="st13" d="M61.53,40.18c0.01,0.32,0.22,0.58,0.47,0.57l2.29-0.06c0.25-0.01,0.45-0.27,0.44-0.59l-0.15-6.12
						c-0.01-0.32-0.22-0.58-0.47-0.57l-2.29,0.06c-0.25,0.01-0.45,0.27-0.44,0.59L61.53,40.18z"/>
					
						<radialGradient id="SVGID_16_" cx="20.287" cy="358.6056" r="26.4055" gradientTransform="matrix(0.0243 0.9962 0.9997 -0.0242 -321.2644 26.2111)" gradientUnits="userSpaceOnUse">
						<stop  offset="0.8978" style="stop-color:#A1A1A1"/>
						<stop  offset="0.9019" style="stop-color:#ABABAB"/>
						<stop  offset="0.9097" style="stop-color:#B8B8B8"/>
						<stop  offset="0.9199" style="stop-color:#C0C0C0"/>
						<stop  offset="0.9412" style="stop-color:#C2C2C2"/>
						<stop  offset="0.951" style="stop-color:#B7B7B7"/>
						<stop  offset="0.9682" style="stop-color:#999999"/>
						<stop  offset="0.9909" style="stop-color:#686868"/>
						<stop  offset="1" style="stop-color:#535353"/>
					</radialGradient>
					<path class="st14" d="M14.52,41.32c0.01,0.32-0.19,0.59-0.44,0.59l-2.29,0.06c-0.25,0.01-0.46-0.25-0.47-0.57l-0.15-6.12
						c-0.01-0.32,0.19-0.59,0.44-0.59l2.29-0.06c0.25-0.01,0.46,0.25,0.47,0.57L14.52,41.32z"/>
				</g>
				<g>
					
						<radialGradient id="SVGID_17_" cx="21.0763" cy="52.08" r="26.4061" gradientTransform="matrix(-0.3544 0.9318 -0.9351 -0.3532 94.3077 36.5611)" gradientUnits="userSpaceOnUse">
						<stop  offset="0.8978" style="stop-color:#A1A1A1"/>
						<stop  offset="0.9019" style="stop-color:#ABABAB"/>
						<stop  offset="0.9097" style="stop-color:#B8B8B8"/>
						<stop  offset="0.9199" style="stop-color:#C0C0C0"/>
						<stop  offset="0.9412" style="stop-color:#C2C2C2"/>
						<stop  offset="0.951" style="stop-color:#B7B7B7"/>
						<stop  offset="0.9682" style="stop-color:#999999"/>
						<stop  offset="0.9909" style="stop-color:#686868"/>
						<stop  offset="1" style="stop-color:#535353"/>
					</radialGradient>
					<path class="st15" d="M58.84,48.86c-0.11,0.3-0.01,0.62,0.22,0.7l2.14,0.81c0.23,0.09,0.52-0.08,0.63-0.38l2.18-5.73
						c0.11-0.3,0.01-0.62-0.22-0.7l-2.14-0.81c-0.23-0.09-0.52,0.08-0.63,0.38L58.84,48.86z"/>
					
						<radialGradient id="SVGID_18_" cx="21.6586" cy="351.5096" r="26.4063" gradientTransform="matrix(-0.3544 0.9318 0.9351 0.3532 -283.2937 -106.6722)" gradientUnits="userSpaceOnUse">
						<stop  offset="0.8978" style="stop-color:#A1A1A1"/>
						<stop  offset="0.9019" style="stop-color:#ABABAB"/>
						<stop  offset="0.9097" style="stop-color:#B8B8B8"/>
						<stop  offset="0.9199" style="stop-color:#C0C0C0"/>
						<stop  offset="0.9412" style="stop-color:#C2C2C2"/>
						<stop  offset="0.951" style="stop-color:#B7B7B7"/>
						<stop  offset="0.9682" style="stop-color:#999999"/>
						<stop  offset="0.9909" style="stop-color:#686868"/>
						<stop  offset="1" style="stop-color:#535353"/>
					</radialGradient>
					<path class="st16" d="M14.87,32.25c-0.11,0.3-0.4,0.47-0.63,0.38l-2.14-0.81c-0.23-0.09-0.33-0.41-0.22-0.7l2.18-5.73
						c0.11-0.3,0.4-0.47,0.63-0.38l2.14,0.81c0.23,0.09,0.33,0.41,0.22,0.7L14.87,32.25z"/>
				</g>
				<g>
					
						<radialGradient id="SVGID_19_" cx="25.1145" cy="57.7952" r="26.4052" gradientTransform="matrix(-0.6831 0.7278 -0.7303 -0.6807 97.4451 58.9374)" gradientUnits="userSpaceOnUse">
						<stop  offset="0.8978" style="stop-color:#A1A1A1"/>
						<stop  offset="0.9019" style="stop-color:#ABABAB"/>
						<stop  offset="0.9097" style="stop-color:#B8B8B8"/>
						<stop  offset="0.9199" style="stop-color:#C0C0C0"/>
						<stop  offset="0.9412" style="stop-color:#C2C2C2"/>
						<stop  offset="0.951" style="stop-color:#B7B7B7"/>
						<stop  offset="0.9682" style="stop-color:#999999"/>
						<stop  offset="0.9909" style="stop-color:#686868"/>
						<stop  offset="1" style="stop-color:#535353"/>
					</radialGradient>
					<path class="st17" d="M53.02,55.93c-0.22,0.23-0.25,0.56-0.06,0.73l1.67,1.56c0.18,0.17,0.51,0.12,0.73-0.11l4.2-4.47
						c0.22-0.23,0.25-0.56,0.07-0.73l-1.67-1.56c-0.18-0.17-0.51-0.12-0.73,0.11L53.02,55.93z"/>
					
						<radialGradient id="SVGID_20_" cx="25.0931" cy="346.2693" r="26.4052" gradientTransform="matrix(-0.6831 0.7278 0.7303 0.6807 -197.9818 -216.4033)" gradientUnits="userSpaceOnUse">
						<stop  offset="0.8978" style="stop-color:#A1A1A1"/>
						<stop  offset="0.9019" style="stop-color:#ABABAB"/>
						<stop  offset="0.9097" style="stop-color:#B8B8B8"/>
						<stop  offset="0.9199" style="stop-color:#C0C0C0"/>
						<stop  offset="0.9412" style="stop-color:#C2C2C2"/>
						<stop  offset="0.951" style="stop-color:#B7B7B7"/>
						<stop  offset="0.9682" style="stop-color:#999999"/>
						<stop  offset="0.9909" style="stop-color:#686868"/>
						<stop  offset="1" style="stop-color:#535353"/>
					</radialGradient>
					<path class="st18" d="M18.68,23.92c-0.22,0.23-0.55,0.28-0.73,0.11l-1.67-1.56c-0.18-0.17-0.15-0.5,0.07-0.73l4.2-4.47
						c0.22-0.23,0.55-0.28,0.73-0.11l1.67,1.56c0.18,0.17,0.15,0.5-0.07,0.73L18.68,23.92z"/>
				</g>
				<g>
					
						<radialGradient id="SVGID_21_" cx="30.6861" cy="61.3586" r="26.4049" gradientTransform="matrix(-0.9203 0.3899 -0.3913 -0.9171 90.2471 82.216)" gradientUnits="userSpaceOnUse">
						<stop  offset="0.8978" style="stop-color:#A1A1A1"/>
						<stop  offset="0.9019" style="stop-color:#ABABAB"/>
						<stop  offset="0.9097" style="stop-color:#B8B8B8"/>
						<stop  offset="0.9199" style="stop-color:#C0C0C0"/>
						<stop  offset="0.9412" style="stop-color:#C2C2C2"/>
						<stop  offset="0.951" style="stop-color:#B7B7B7"/>
						<stop  offset="0.9682" style="stop-color:#999999"/>
						<stop  offset="0.9909" style="stop-color:#686868"/>
						<stop  offset="1" style="stop-color:#535353"/>
					</radialGradient>
					<path class="st19" d="M44.32,60.45c-0.29,0.12-0.46,0.42-0.36,0.65l0.89,2.1c0.1,0.23,0.42,0.32,0.71,0.19l5.66-2.4
						c0.29-0.12,0.46-0.42,0.36-0.65l-0.89-2.1c-0.1-0.23-0.42-0.32-0.71-0.19L44.32,60.45z"/>
					
						<radialGradient id="SVGID_22_" cx="30.3186" cy="341.7585" r="26.4049" gradientTransform="matrix(-0.9203 0.3899 0.3913 0.9171 -68.0046 -287.7407)" gradientUnits="userSpaceOnUse">
						<stop  offset="0.8978" style="stop-color:#A1A1A1"/>
						<stop  offset="0.9019" style="stop-color:#ABABAB"/>
						<stop  offset="0.9097" style="stop-color:#B8B8B8"/>
						<stop  offset="0.9199" style="stop-color:#C0C0C0"/>
						<stop  offset="0.9412" style="stop-color:#C2C2C2"/>
						<stop  offset="0.951" style="stop-color:#B7B7B7"/>
						<stop  offset="0.9682" style="stop-color:#999999"/>
						<stop  offset="0.9909" style="stop-color:#686868"/>
						<stop  offset="1" style="stop-color:#535353"/>
					</radialGradient>
					<path class="st20" d="M25.92,17.33c-0.29,0.12-0.62,0.04-0.71-0.19l-0.89-2.1c-0.1-0.23,0.06-0.52,0.36-0.65l5.66-2.4
						c0.29-0.12,0.62-0.04,0.71,0.19l0.89,2.1c0.1,0.23-0.06,0.52-0.36,0.65L25.92,17.33z"/>
				</g>
			</g>
		</g>
		<linearGradient id="SVGID_23_" gradientUnits="userSpaceOnUse" x1="37.9498" y1="13.3627" x2="37.9498" y2="61.2287">
			<stop  offset="0.051" style="stop-color:#FFDF00"/>
			<stop  offset="0.1582" style="stop-color:#FFBD00"/>
			<stop  offset="0.2491" style="stop-color:#FCB900"/>
			<stop  offset="0.3459" style="stop-color:#F2AC00"/>
			<stop  offset="0.4451" style="stop-color:#E39700"/>
			<stop  offset="0.4779" style="stop-color:#DC8E00"/>
			<stop  offset="0.5044" style="stop-color:#DD9000"/>
			<stop  offset="0.514" style="stop-color:#E19700"/>
			<stop  offset="0.5208" style="stop-color:#E8A200"/>
			<stop  offset="0.5263" style="stop-color:#F2B300"/>
			<stop  offset="0.531" style="stop-color:#FEC900"/>
			<stop  offset="0.5312" style="stop-color:#FFCA00"/>
			<stop  offset="0.5368" style="stop-color:#E3A800"/>
			<stop  offset="0.543" style="stop-color:#CA8A00"/>
			<stop  offset="0.55" style="stop-color:#B57100"/>
			<stop  offset="0.5577" style="stop-color:#A55E00"/>
			<stop  offset="0.5667" style="stop-color:#995000"/>
			<stop  offset="0.578" style="stop-color:#934800"/>
			<stop  offset="0.5994" style="stop-color:#914600"/>
			<stop  offset="0.7245" style="stop-color:#E78E00"/>
			<stop  offset="0.7324" style="stop-color:#DF8700"/>
			<stop  offset="0.7689" style="stop-color:#BD6B00"/>
			<stop  offset="0.8037" style="stop-color:#A55700"/>
			<stop  offset="0.8357" style="stop-color:#964A00"/>
			<stop  offset="0.8622" style="stop-color:#914600"/>
			<stop  offset="0.916" style="stop-color:#934700"/>
			<stop  offset="0.9372" style="stop-color:#9A4B00"/>
			<stop  offset="0.9527" style="stop-color:#A65300"/>
			<stop  offset="0.9655" style="stop-color:#B75E00"/>
			<stop  offset="0.9763" style="stop-color:#CE6B00"/>
			<stop  offset="0.9851" style="stop-color:#E67A00"/>
		</linearGradient>
		<ellipse class="st21" cx="37.95" cy="37.74" rx="23.73" ry="23.65"/>
		<linearGradient id="SVGID_24_" gradientUnits="userSpaceOnUse" x1="37.9498" y1="14.7646" x2="37.9498" y2="59.8905">
			<stop  offset="0" style="stop-color:#FFFFFF"/>
			<stop  offset="2.403617e-03" style="stop-color:#FFFFFF"/>
			<stop  offset="0.2051" style="stop-color:#E0E0E0"/>
			<stop  offset="0.3781" style="stop-color:#CECECE"/>
			<stop  offset="0.5" style="stop-color:#C7C7C7"/>
			<stop  offset="0.7275" style="stop-color:#DEDEDE"/>
			<stop  offset="1" style="stop-color:#FFFFFF"/>
		</linearGradient>
		<ellipse class="st22" cx="37.95" cy="37.74" rx="22.54" ry="22.46"/>
		
			<radialGradient id="SVGID_25_" cx="37.9498" cy="28.6699" r="20.8821" gradientTransform="matrix(1 0 0 0.9965 0 9.1734)" gradientUnits="userSpaceOnUse">
			<stop  offset="0.9235" style="stop-color:#270000"/>
			<stop  offset="0.942" style="stop-color:#1B0000"/>
			<stop  offset="0.9701" style="stop-color:#100000"/>
			<stop  offset="1" style="stop-color:#0C0000"/>
		</radialGradient>
		<ellipse class="st23" cx="37.95" cy="37.74" rx="20.88" ry="20.81"/>
		<path class="st24" d="M10.79,13.61l5.04,4.96c0,0,0.98,0.61,1.84-0.17c0,0,4.57-5.04,11.71-7.24c1.38-0.53,1.04-1.59,1.04-1.59
			l-2.21-6.73C28.22,2.85,18.42,5.05,10.79,13.61z"/>
		<path class="st24" d="M64.98,61.97l-5.04-4.96c0,0-0.98-0.61-1.84,0.17c0,0-4.57,5.04-11.71,7.24C45.02,64.94,45.35,66,45.35,66
			l2.21,6.73C47.56,72.73,57.36,70.53,64.98,61.97z"/>
		<path class="st24" d="M47.07,2.63l-2.11,6.74c0,0-0.09,1.15,0.99,1.55c0,0,6.59,1.73,11.83,7.04c1.1,0.98,1.89,0.2,1.89,0.2
			l4.99-5.05C64.66,13.11,58.2,5.44,47.07,2.63z"/>
		<linearGradient id="SVGID_26_" gradientUnits="userSpaceOnUse" x1="37.9498" y1="0.6445" x2="37.9498" y2="73.4994">
			<stop  offset="0" style="stop-color:#FFFFFF"/>
			<stop  offset="0.2755" style="stop-color:#FFFFFF"/>
			<stop  offset="0.4241" style="stop-color:#E8E8E8"/>
			<stop  offset="0.4297" style="stop-color:#E7E7E7"/>
			<stop  offset="0.5788" style="stop-color:#CBCBCB"/>
			<stop  offset="0.8986" style="stop-color:#858585"/>
			<stop  offset="0.9745" style="stop-color:#737373"/>
		</linearGradient>
		<path class="st25" d="M37.95,1.48c-20.1,0-36.39,16.23-36.39,36.26S17.85,74,37.95,74c20.1,0,36.39-16.23,36.39-36.26
			S58.05,1.48,37.95,1.48z M37.95,73.34c-19.73,0-35.72-15.94-35.72-35.6s15.99-35.6,35.72-35.6s35.72,15.94,35.72,35.6
			S57.68,73.34,37.95,73.34z"/>
		<path class="st24" d="M28.75,72.8l2.11-6.74c0,0,0.09-1.15-0.99-1.55c0,0-6.59-1.73-11.83-7.04c-1.1-0.98-1.89-0.2-1.89-0.2
			l-4.99,5.05C11.15,62.32,17.61,69.98,28.75,72.8z"/>
		<path class="st24" d="M3.03,47.98l6.89-1.67c0,0,1.03-0.51,0.82-1.64c0,0-1.9-6.52-0.02-13.73c0.27-1.45-0.8-1.72-0.8-1.72
			l-6.91-1.67C3.01,27.56-0.27,37.02,3.03,47.98z"/>
		<path class="st24" d="M72.86,27.56l-6.89,1.67c0,0-1.03,0.51-0.82,1.64c0,0,1.9,6.52,0.02,13.73c-0.27,1.45,0.8,1.72,0.8,1.72
			l6.91,1.67C72.89,47.98,76.16,38.52,72.86,27.56z"/>
	</g>
</g>
<g>
	<polygon class="st26" points="24.51,25.21 24.79,25.98 25.58,26.01 24.96,26.52 25.18,27.31 24.51,26.85 23.85,27.31 24.07,26.52 
		23.44,26.01 24.24,25.98 	"/>
	<polygon class="st26" points="50.34,25.21 50.61,25.98 51.41,26.01 50.78,26.52 51,27.31 50.34,26.85 49.67,27.31 49.89,26.52 
		49.27,26.01 50.06,25.98 	"/>
	<polygon class="st26" points="24.51,50.49 24.79,51.26 25.58,51.29 24.96,51.8 25.18,52.59 24.51,52.13 23.85,52.59 24.07,51.8 
		23.44,51.29 24.24,51.26 	"/>
	<polygon class="st26" points="50.34,50.49 50.61,51.26 51.41,51.29 50.78,51.8 51,52.59 50.34,52.13 49.67,52.59 49.89,51.8 
		49.27,51.29 50.06,51.26 	"/>
</g>
</svg>
