<svg id="Layer_1" data-name="Layer 1" xmlns="http://www.w3.org/2000/svg" xmlns:xlink="http://www.w3.org/1999/xlink" viewBox="0 0 23.41 20.15"><defs><style>.cls-1{fill:url(#linear-gradient);}.cls-2{fill:url(#linear-gradient-2);}.cls-3{fill:url(#linear-gradient-3);}.cls-4{fill:url(#linear-gradient-4);}.cls-5{fill:url(#linear-gradient-5);}.cls-6{fill:url(#linear-gradient-6);}.cls-7{fill:url(#linear-gradient-7);}.cls-8{fill:url(#linear-gradient-8);}</style><linearGradient id="linear-gradient" x1="0.32" y1="11.94" x2="23.73" y2="11.94" gradientUnits="userSpaceOnUse"><stop offset="0" stop-color="#ff8e00"/><stop offset="1" stop-color="#e9b300"/></linearGradient><linearGradient id="linear-gradient-2" x1="5.57" y1="12.47" x2="15.11" y2="12.47" xlink:href="#linear-gradient"/><linearGradient id="linear-gradient-3" x1="14.2" y1="6.62" x2="15.63" y2="6.62" xlink:href="#linear-gradient"/><linearGradient id="linear-gradient-4" x1="15.06" y1="9.36" x2="16.48" y2="9.36" xlink:href="#linear-gradient"/><linearGradient id="linear-gradient-5" x1="15.94" y1="12.1" x2="17.33" y2="12.1" xlink:href="#linear-gradient"/><linearGradient id="linear-gradient-6" x1="16.83" y1="14.84" x2="18.18" y2="14.84" xlink:href="#linear-gradient"/><linearGradient id="linear-gradient-7" x1="8.3" y1="11.47" x2="11.73" y2="11.47" xlink:href="#linear-gradient"/><linearGradient id="linear-gradient-8" x1="8.95" y1="13.46" x2="12.36" y2="13.46" xlink:href="#linear-gradient"/></defs><title>Lottery</title><path class="cls-1" d="M5.12,22a.54.54,0,0,1-.58-.45c-.44-1.38-.88-2.75-1.31-4.13a.64.64,0,0,1,.29-.82,1.89,1.89,0,0,0,.83-2.24,1.92,1.92,0,0,0-2-1.37.68.68,0,0,1-.74-.55c-.41-1.33-.82-2.66-1.26-4-.18-.54,0-.78.5-.93q8.85-2.79,17.7-5.61c.53-.16.81,0,1,.53.37,1.29.79,2.57,1.22,3.85a.81.81,0,0,1-.26,1,1.82,1.82,0,0,0-.65,2.11,1.79,1.79,0,0,0,1.74,1.34.82.82,0,0,1,.82.68c.39,1.29.79,2.57,1.21,3.85.18.52.08.83-.47,1l-17.7,5.6A2.33,2.33,0,0,1,5.12,22Zm13.57-5.3,3.76-1.21c.31-.1.11-.32.06-.48-.29-.91-.6-1.82-.85-2.74A.77.77,0,0,0,21,11.7a2.92,2.92,0,0,1-1.49-4.79.7.7,0,0,0,.17-.77c-.32-.9-.63-1.8-.87-2.73-.12-.46-.31-.43-.67-.31-1,.34-2.05.67-3.08,1-.3.09-.55.16-.42.58a.41.41,0,0,1-.3.52.42.42,0,0,1-.6-.25c-.12-.45-.38-.31-.67-.22L1.91,8.25c-.38.12-.51.23-.36.66.31.84.57,1.72.82,2.58a.77.77,0,0,0,.69.61,2.82,2.82,0,0,1,1.88,4.37,2.09,2.09,0,0,0-.25,2.35,10.25,10.25,0,0,1,.5,1.54c.1.46.27.56.74.41,3.7-1.2,7.41-2.37,11.12-3.54.12,0,.31-.06.33-.13C17.64,16.28,18,15.91,18.69,16.71Z" transform="translate(-0.32 -1.87)"/><path class="cls-2" d="M11.91,7c.43,0,.56.2.65.48.83,2.63,1.66,5.25,2.5,7.88a.6.6,0,0,1-.45.86L9,17.94c-.5.16-.78,0-.94-.54Q6.9,13.56,5.65,9.73c-.15-.46-.12-.79.39-1L11.7,7A.87.87,0,0,1,11.91,7Zm2,8.16a.64.64,0,0,1-.06-.16q-1-3.25-2.05-6.51c-.1-.31-.26-.37-.55-.27-1.41.46-2.81.91-4.22,1.34-.34.1-.35.27-.26.56.68,2.12,1.36,4.24,2,6.36.11.34.23.45.58.33,1.4-.46,2.81-.9,4.21-1.34C13.79,15.36,14,15.35,14,15.11Z" transform="translate(-0.32 -1.87)"/><path class="cls-3" d="M14.2,6a.52.52,0,0,1,.34-.57.47.47,0,0,1,.61.29,13.65,13.65,0,0,1,.46,1.41.46.46,0,0,1-.33.59.44.44,0,0,1-.6-.27C14.49,7,14.35,6.5,14.2,6Z" transform="translate(-0.32 -1.87)"/><path class="cls-4" d="M16,10.55a.52.52,0,0,1-.44-.29c-.18-.49-.35-1-.48-1.49a.46.46,0,0,1,.36-.57.42.42,0,0,1,.55.26A11.19,11.19,0,0,1,16.46,10C16.55,10.3,16.31,10.49,16,10.55Z" transform="translate(-0.32 -1.87)"/><path class="cls-5" d="M17.32,12.54c.05.44-.07.65-.35.72a.45.45,0,0,1-.55-.29c-.17-.47-.33-1-.46-1.43a.45.45,0,0,1,.33-.59.44.44,0,0,1,.6.3C17.06,11.72,17.2,12.2,17.32,12.54Z" transform="translate(-0.32 -1.87)"/><path class="cls-6" d="M17.29,13.65l.14,0c.41.12.95,1.83.67,2.14a.44.44,0,0,1-.76,0,4.75,4.75,0,0,1-.51-1.64C16.79,13.85,17,13.7,17.29,13.65Z" transform="translate(-0.32 -1.87)"/><path class="cls-7" d="M11.73,11a.54.54,0,0,1-.38.62L9,12.33A.48.48,0,0,1,8.34,12c-.12-.33.08-.54.36-.64.78-.26,1.56-.51,2.35-.75A.5.5,0,0,1,11.73,11Z" transform="translate(-0.32 -1.87)"/><path class="cls-8" d="M11.8,12.57c.29,0,.49.12.54.38a.42.42,0,0,1-.24.56c-.85.29-1.7.57-2.56.82A.44.44,0,0,1,9,14a.43.43,0,0,1,.25-.56C10.09,13.12,11,12.84,11.8,12.57Z" transform="translate(-0.32 -1.87)"/></svg>