<svg id="Layer_1" data-name="Layer 1" xmlns="http://www.w3.org/2000/svg" xmlns:xlink="http://www.w3.org/1999/xlink" viewBox="0 0 23.02 23.03"><defs><style>.cls-1{fill:url(#linear-gradient);}.cls-2{fill:url(#linear-gradient-2);}.cls-3{fill:url(#linear-gradient-3);}.cls-4{fill:url(#linear-gradient-4);}.cls-5{fill:url(#linear-gradient-5);}</style><linearGradient id="linear-gradient" x1="0.49" y1="12.26" x2="23.51" y2="12.26" gradientUnits="userSpaceOnUse"><stop offset="0" stop-color="#ff8e00"/><stop offset="1" stop-color="#e9b300"/></linearGradient><linearGradient id="linear-gradient-2" x1="7.39" y1="14.75" x2="11.26" y2="14.75" xlink:href="#linear-gradient"/><linearGradient id="linear-gradient-3" x1="12.87" y1="9.54" x2="16.76" y2="9.54" xlink:href="#linear-gradient"/><linearGradient id="linear-gradient-4" x1="7.3" y1="9.53" x2="11.35" y2="9.53" xlink:href="#linear-gradient"/><linearGradient id="linear-gradient-5" x1="12.72" y1="14.76" x2="16.92" y2="14.76" xlink:href="#linear-gradient"/></defs><title>Poker</title><path class="cls-1" d="M12,23.78a11.52,11.52,0,1,1,11.51-11.5A11.52,11.52,0,0,1,12,23.78Zm0-4.17a7.35,7.35,0,1,0-7.33-7.34A7.33,7.33,0,0,0,12,19.61Zm2,3.76c-.08-.36-.15-.7-.23-1a6.63,6.63,0,0,0-.18-.77.67.67,0,0,0-.72-.5h-2a.76.76,0,0,0-.6.66c-.06.27-.12.55-.17.83s-.12.53-.18.81A11.19,11.19,0,0,0,14,23.37ZM14,1.16a11.19,11.19,0,0,0-4.08,0,1.24,1.24,0,0,1,0,.16c.1.5.2,1,.31,1.49a.75.75,0,0,0,.83.66h1.72a.72.72,0,0,0,.81-.62C13.81,2.3,13.91,1.74,14,1.16Zm6.55,3.78c-.46.42-.92.82-1.35,1.26a.65.65,0,0,0-.08.88l.93,1.61a.61.61,0,0,0,.62.35A1.28,1.28,0,0,0,21.1,9l1.27-.41.27-.09A11.37,11.37,0,0,0,20.59,4.94ZM3.4,4.94a11.59,11.59,0,0,0-2,3.54c.59.19,1.16.38,1.73.54a.68.68,0,0,0,.85-.37c.29-.51.58-1,.89-1.54a.73.73,0,0,0-.12-1C4.29,5.73,3.85,5.35,3.4,4.94ZM20.59,19.59a11.49,11.49,0,0,0,2.05-3.53L22.42,16c-.5-.16-1-.33-1.5-.47a.69.69,0,0,0-.86.37c-.3.52-.59,1-.89,1.55a.69.69,0,0,0,.11.95C19.7,18.79,20.15,19.18,20.59,19.59Zm-17.19,0,.06,0,1.19-1.07a1.12,1.12,0,0,0,.24-.33.58.58,0,0,0,0-.61l-1-1.72a.59.59,0,0,0-.53-.31,1.68,1.68,0,0,0-.45.06L1.47,16l-.1,0A11.16,11.16,0,0,0,3.4,19.58ZM7,6.45a1.06,1.06,0,0,0,.19-.11A7.76,7.76,0,0,1,9.26,5.16c.17-.07.23-.18.18-.3s-.17-.18-.34-.11A7.89,7.89,0,0,0,7.17,5.81a1.31,1.31,0,0,0-.28.24.29.29,0,0,0,0,.24C6.86,6.35,7,6.39,7,6.45Zm7.76-1.74a.23.23,0,0,0-.23.18c0,.11,0,.21.18.26a7.46,7.46,0,0,1,2.06,1.2c.14.1.27.1.35,0A.23.23,0,0,0,17.07,6,8,8,0,0,0,14.9,4.75Zm4.77,4.77a.65.65,0,0,0,0-.13c-.24-.48-.46-.95-.72-1.41-.15-.27-.36-.51-.54-.77A.21.21,0,0,0,18,7.09a.29.29,0,0,0-.15.18.37.37,0,0,0,.08.22A7.45,7.45,0,0,1,19,9.31c0,.09.07.19.12.28a.19.19,0,0,0,.24.12A.21.21,0,0,0,19.55,9.48Zm0,5.56c0-.12-.06-.2-.17-.22a.21.21,0,0,0-.25.13c-.07.16-.13.32-.2.47a7.75,7.75,0,0,1-1,1.63c-.08.09-.13.19-.05.3a.21.21,0,0,0,.36,0,8,8,0,0,0,1.29-2.23A.29.29,0,0,0,19.55,15ZM6.19,7.28c-.06-.07-.11-.15-.18-.18s-.19,0-.27.08a8.47,8.47,0,0,0-1.27,2.2c0,.16,0,.27.12.32a.23.23,0,0,0,.3-.16,7.72,7.72,0,0,1,1.2-2.08S6.14,7.36,6.19,7.28Zm0,10c-.05-.08-.08-.15-.12-.2-.28-.43-.57-.86-.83-1.3A5.23,5.23,0,0,1,4.89,15c-.07-.15-.17-.21-.3-.16s-.17.16-.11.33l0,.05a7.51,7.51,0,0,0,.85,1.61c.13.19.27.36.41.54a.2.2,0,0,0,.26.07C6.09,17.4,6.13,17.32,6.19,17.25Zm3.26,2.3a.92.92,0,0,0-.11-.14.25.25,0,0,0-.09,0,8.06,8.06,0,0,1-2-1.17A.29.29,0,0,0,7,18.12a.27.27,0,0,0-.18.15.18.18,0,0,0,.08.24,9,9,0,0,0,.83.59c.45.25.92.47,1.38.69A.23.23,0,0,0,9.45,19.55Zm7.77-1.22a.79.79,0,0,0-.15-.19.21.21,0,0,0-.26,0,7.9,7.9,0,0,1-2.1,1.22.21.21,0,0,0-.15.29.23.23,0,0,0,.31.12,8,8,0,0,0,2.22-1.29A.93.93,0,0,0,17.22,18.33ZM3.92,12.27,4,13.51c0,.18.13.27.27.24s.19-.14.17-.32a7.35,7.35,0,0,1,0-2.34c0-.17,0-.29-.18-.31s-.24.07-.26.25ZM12,4.18l-1.27.12a.23.23,0,0,0-.23.26.23.23,0,0,0,.3.18,7.85,7.85,0,0,1,2.37,0c.17,0,.29,0,.31-.17a.24.24,0,0,0-.23-.27Zm7.63,8.08-.12,1.19c0,.16,0,.28.17.3s.24-.06.27-.23A8.13,8.13,0,0,0,20,11a.23.23,0,0,0-.26-.23c-.13,0-.2.13-.18.3ZM12,20.35l1.25-.12c.17,0,.26-.13.24-.26s-.14-.2-.3-.18a7.85,7.85,0,0,1-2.37,0c-.17,0-.28,0-.31.17a.24.24,0,0,0,.23.27Z" transform="translate(-0.49 -0.75)"/><path class="cls-2" d="M8.43,16.73a.21.21,0,0,1,.11-.28,1.34,1.34,0,0,0,.62-.75,1,1,0,0,1-1.29.23A1,1,0,0,1,7.4,15c.07-.49.31-.72,1-.89a1,1,0,0,1,.44-1.17.94.94,0,0,1,1.05,0,1,1,0,0,1,.39,1.13,1,1,0,0,1,1,.94,1,1,0,0,1-.55.94,1,1,0,0,1-1.22-.28,1.36,1.36,0,0,0,.47.65.49.49,0,0,0,.15.1.22.22,0,0,1,.12.29Z" transform="translate(-0.49 -0.75)"/><path class="cls-3" d="M15,10.62a1.41,1.41,0,0,0,.59.67c.11.07.18.14.13.29h-1.8a.23.23,0,0,1,.12-.29,1.12,1.12,0,0,0,.58-.74l0,.06a.94.94,0,0,1-1.25.14A1,1,0,0,1,13,9.51,2.12,2.12,0,0,1,13.35,9c.37-.38.76-.74,1.13-1.11.12-.13.22-.28.33-.41l0,0a8.47,8.47,0,0,0,1.27,1.34,4.12,4.12,0,0,1,.41.43.93.93,0,0,1,.06,1.16,1,1,0,0,1-1.1.42A3.29,3.29,0,0,1,15,10.62Z" transform="translate(-0.49 -0.75)"/><path class="cls-4" d="M9.33,8.4a3.06,3.06,0,0,1,.21-.29,1,1,0,0,1,1.32-.2,1,1,0,0,1,.36,1.36,1.57,1.57,0,0,1-.32.41,10,10,0,0,0-1.55,1.63c-.28-.31-.53-.61-.81-.89S8,9.94,7.77,9.69A1.38,1.38,0,0,1,7.32,9a1.07,1.07,0,0,1,.61-1.14,1,1,0,0,1,1.2.28Z" transform="translate(-0.49 -0.75)"/><path class="cls-5" d="M12.72,14.76a7.92,7.92,0,0,0,2.1-2.1,7.77,7.77,0,0,0,2.1,2.1,8,8,0,0,0-2.1,2.11A8,8,0,0,0,12.72,14.76Z" transform="translate(-0.49 -0.75)"/></svg>