<?xml version="1.0" encoding="utf-8"?>
<!-- Generator: Adobe Illustrator 23.0.5, SVG Export Plug-In . SVG Version: 6.00 Build 0)  -->
<svg version="1.1" id="Layer_1" xmlns="http://www.w3.org/2000/svg" xmlns:xlink="http://www.w3.org/1999/xlink" x="0px" y="0px"
	 viewBox="0 0 75 75" style="enable-background:new 0 0 75 75;" xml:space="preserve">
<style type="text/css">
	.st0{fill:url(#SVGID_1_);}
	.st1{fill:url(#SVGID_2_);}
	.st2{fill:url(#SVGID_3_);}
	.st3{fill:url(#SVGID_4_);}
	.st4{clip-path:url(#SVGID_6_);}
	.st5{fill:url(#SVGID_7_);}
	.st6{fill:url(#SVGID_8_);}
	.st7{fill:url(#SVGID_9_);}
	.st8{fill:url(#SVGID_10_);}
	.st9{fill:url(#SVGID_11_);}
	.st10{fill:url(#SVGID_12_);}
	.st11{fill:url(#SVGID_13_);}
	.st12{fill:url(#SVGID_14_);}
	.st13{fill:url(#SVGID_15_);}
	.st14{fill:url(#SVGID_16_);}
	.st15{fill:url(#SVGID_17_);}
	.st16{fill:url(#SVGID_18_);}
	.st17{fill:url(#SVGID_19_);}
	.st18{fill:url(#SVGID_20_);}
	.st19{fill:url(#SVGID_21_);}
	.st20{fill:url(#SVGID_22_);}
	.st21{fill:url(#SVGID_23_);}
	.st22{fill:url(#SVGID_24_);}
	.st23{fill:url(#SVGID_25_);}
	.st24{fill:url(#SVGID_26_);}
	.st25{fill:url(#SVGID_27_);}
	.st26{fill:url(#SVGID_28_);}
	.st27{opacity:0.42;fill:url(#SVGID_29_);}
	.st28{fill:url(#SVGID_30_);}
	.st29{fill:url(#SVGID_31_);}
	.st30{fill:url(#SVGID_32_);}
	.st31{fill:#FFC030;}
</style>
<g>
	<g>
		<linearGradient id="SVGID_1_" gradientUnits="userSpaceOnUse" x1="38.2457" y1="0.2936" x2="38.2457" y2="73.4138">
			<stop  offset="0" style="stop-color:#FFFF00"/>
			<stop  offset="0.0537" style="stop-color:#FFF500"/>
			<stop  offset="0.2355" style="stop-color:#FFD600"/>
			<stop  offset="0.3906" style="stop-color:#FFC400"/>
			<stop  offset="0.5" style="stop-color:#FFBD00"/>
			<stop  offset="0.5297" style="stop-color:#FBA600"/>
			<stop  offset="0.5561" style="stop-color:#F68E00"/>
			<stop  offset="1" style="stop-color:#C36300"/>
		</linearGradient>
		<circle class="st0" cx="38.25" cy="37.53" r="36.39"/>
		<linearGradient id="SVGID_2_" gradientUnits="userSpaceOnUse" x1="38.2457" y1="1.239" x2="38.2457" y2="72.5027">
			<stop  offset="0" style="stop-color:#FFDF00"/>
			<stop  offset="0.0377" style="stop-color:#FFD600"/>
			<stop  offset="0.1382" style="stop-color:#FFC400"/>
			<stop  offset="0.2092" style="stop-color:#FFBD00"/>
			<stop  offset="0.5526" style="stop-color:#FFA600"/>
			<stop  offset="0.8571" style="stop-color:#FF8E00"/>
		</linearGradient>
		<circle class="st1" cx="38.25" cy="37.53" r="35.47"/>
		<linearGradient id="SVGID_3_" gradientUnits="userSpaceOnUse" x1="38.2457" y1="0.2936" x2="38.2457" y2="73.4138">
			<stop  offset="0" style="stop-color:#FFFFFF"/>
			<stop  offset="2.403617e-03" style="stop-color:#FFFFFF"/>
			<stop  offset="0.2051" style="stop-color:#E0E0E0"/>
			<stop  offset="0.3781" style="stop-color:#CECECE"/>
			<stop  offset="0.5" style="stop-color:#C7C7C7"/>
			<stop  offset="0.7275" style="stop-color:#DEDEDE"/>
			<stop  offset="1" style="stop-color:#FFFFFF"/>
		</linearGradient>
		<path class="st2" d="M38.25,1.14c-20.1,0-36.39,16.29-36.39,36.39s16.29,36.39,36.39,36.39s36.39-16.29,36.39-36.39
			S58.34,1.14,38.25,1.14z M38.25,63.9c-14.56,0-26.37-11.81-26.37-26.37c0-14.56,11.81-26.37,26.37-26.37s26.37,11.81,26.37,26.37
			C64.62,52.09,52.81,63.9,38.25,63.9z"/>
		<radialGradient id="SVGID_4_" cx="38.2457" cy="37.5276" r="27.302" gradientUnits="userSpaceOnUse">
			<stop  offset="0.8929" style="stop-color:#929292"/>
			<stop  offset="0.9257" style="stop-color:#5F5F5F"/>
			<stop  offset="0.9592" style="stop-color:#2F2F2F"/>
			<stop  offset="1" style="stop-color:#FFFFFF"/>
		</radialGradient>
		<circle class="st3" cx="38.25" cy="37.53" r="27.3"/>
		<g>
			<defs>
				<circle id="SVGID_5_" cx="38.25" cy="37.53" r="26.63"/>
			</defs>
			<clipPath id="SVGID_6_">
				<use xlink:href="#SVGID_5_"  style="overflow:visible;"/>
			</clipPath>
			<g class="st4">
				<g>
					<radialGradient id="SVGID_7_" cx="38.2824" cy="37.2537" r="26.4828" gradientUnits="userSpaceOnUse">
						<stop  offset="0.8978" style="stop-color:#A1A1A1"/>
						<stop  offset="0.9019" style="stop-color:#ABABAB"/>
						<stop  offset="0.9097" style="stop-color:#B8B8B8"/>
						<stop  offset="0.9199" style="stop-color:#C0C0C0"/>
						<stop  offset="0.9412" style="stop-color:#C2C2C2"/>
						<stop  offset="0.951" style="stop-color:#B7B7B7"/>
						<stop  offset="0.9682" style="stop-color:#999999"/>
						<stop  offset="0.9909" style="stop-color:#686868"/>
						<stop  offset="1" style="stop-color:#535353"/>
					</radialGradient>
					<path class="st5" d="M41.32,13.9c0.32,0,0.58-0.21,0.58-0.46v-2.29c0-0.25-0.26-0.46-0.58-0.46h-6.16
						c-0.32,0-0.58,0.21-0.58,0.46v2.29c0,0.25,0.26,0.46,0.58,0.46H41.32z"/>
					
						<radialGradient id="SVGID_8_" cx="38.2824" cy="366.4262" r="26.4828" gradientTransform="matrix(1 0 0 -1 0 404.125)" gradientUnits="userSpaceOnUse">
						<stop  offset="0.8978" style="stop-color:#A1A1A1"/>
						<stop  offset="0.9019" style="stop-color:#ABABAB"/>
						<stop  offset="0.9097" style="stop-color:#B8B8B8"/>
						<stop  offset="0.9199" style="stop-color:#C0C0C0"/>
						<stop  offset="0.9412" style="stop-color:#C2C2C2"/>
						<stop  offset="0.951" style="stop-color:#B7B7B7"/>
						<stop  offset="0.9682" style="stop-color:#999999"/>
						<stop  offset="0.9909" style="stop-color:#686868"/>
						<stop  offset="1" style="stop-color:#535353"/>
					</radialGradient>
					<path class="st6" d="M41.32,61.06c0.32,0,0.58,0.21,0.58,0.46v2.29c0,0.25-0.26,0.46-0.58,0.46h-6.16
						c-0.32,0-0.58-0.21-0.58-0.46v-2.29c0-0.25,0.26-0.46,0.58-0.46H41.32z"/>
				</g>
				<g>
					
						<radialGradient id="SVGID_9_" cx="35.0656" cy="37.2291" r="26.4839" gradientTransform="matrix(0.9262 0.3771 -0.3771 0.9262 19.9234 -10.4185)" gradientUnits="userSpaceOnUse">
						<stop  offset="0.8978" style="stop-color:#A1A1A1"/>
						<stop  offset="0.9019" style="stop-color:#ABABAB"/>
						<stop  offset="0.9097" style="stop-color:#B8B8B8"/>
						<stop  offset="0.9199" style="stop-color:#C0C0C0"/>
						<stop  offset="0.9412" style="stop-color:#C2C2C2"/>
						<stop  offset="0.951" style="stop-color:#B7B7B7"/>
						<stop  offset="0.9682" style="stop-color:#999999"/>
						<stop  offset="0.9909" style="stop-color:#686868"/>
						<stop  offset="1" style="stop-color:#535353"/>
					</radialGradient>
					<path class="st7" d="M49.99,16.8c0.3,0.12,0.62,0.03,0.71-0.2l0.86-2.12c0.09-0.23-0.07-0.52-0.37-0.64l-5.71-2.32
						c-0.3-0.12-0.62-0.03-0.71,0.2l-0.86,2.12c-0.09,0.23,0.07,0.52,0.37,0.64L49.99,16.8z"/>
					
						<radialGradient id="SVGID_10_" cx="34.5244" cy="366.0293" r="26.484" gradientTransform="matrix(0.9262 0.3771 0.3771 -0.9262 -131.8092 363.6933)" gradientUnits="userSpaceOnUse">
						<stop  offset="0.8978" style="stop-color:#A1A1A1"/>
						<stop  offset="0.9019" style="stop-color:#ABABAB"/>
						<stop  offset="0.9097" style="stop-color:#B8B8B8"/>
						<stop  offset="0.9199" style="stop-color:#C0C0C0"/>
						<stop  offset="0.9412" style="stop-color:#C2C2C2"/>
						<stop  offset="0.951" style="stop-color:#B7B7B7"/>
						<stop  offset="0.9682" style="stop-color:#999999"/>
						<stop  offset="0.9909" style="stop-color:#686868"/>
						<stop  offset="1" style="stop-color:#535353"/>
					</radialGradient>
					<path class="st8" d="M32.21,60.48c0.3,0.12,0.46,0.41,0.37,0.64l-0.86,2.12c-0.09,0.23-0.42,0.32-0.71,0.2l-5.71-2.32
						c-0.3-0.12-0.46-0.41-0.37-0.64l0.86-2.12c0.09-0.23,0.42-0.32,0.71-0.2L32.21,60.48z"/>
				</g>
				<g>
					
						<radialGradient id="SVGID_11_" cx="31.5842" cy="38.8583" r="26.4815" gradientTransform="matrix(0.7157 0.6985 -0.6985 0.7157 42.9641 -12.5273)" gradientUnits="userSpaceOnUse">
						<stop  offset="0.8978" style="stop-color:#A1A1A1"/>
						<stop  offset="0.9019" style="stop-color:#ABABAB"/>
						<stop  offset="0.9097" style="stop-color:#B8B8B8"/>
						<stop  offset="0.9199" style="stop-color:#C0C0C0"/>
						<stop  offset="0.9412" style="stop-color:#C2C2C2"/>
						<stop  offset="0.951" style="stop-color:#B7B7B7"/>
						<stop  offset="0.9682" style="stop-color:#999999"/>
						<stop  offset="0.9909" style="stop-color:#686868"/>
						<stop  offset="1" style="stop-color:#535353"/>
					</radialGradient>
					<path class="st9" d="M56.92,22.75c0.23,0.22,0.56,0.26,0.74,0.08l1.6-1.64c0.18-0.18,0.13-0.51-0.1-0.74l-4.41-4.3
						c-0.23-0.22-0.56-0.26-0.74-0.08l-1.6,1.64c-0.18,0.18-0.13,0.51,0.1,0.74L56.92,22.75z"/>
					
						<radialGradient id="SVGID_12_" cx="31.6538" cy="363.7465" r="26.4814" gradientTransform="matrix(0.7157 0.6985 0.6985 -0.7157 -238.6158 275.8863)" gradientUnits="userSpaceOnUse">
						<stop  offset="0.8978" style="stop-color:#A1A1A1"/>
						<stop  offset="0.9019" style="stop-color:#ABABAB"/>
						<stop  offset="0.9097" style="stop-color:#B8B8B8"/>
						<stop  offset="0.9199" style="stop-color:#C0C0C0"/>
						<stop  offset="0.9412" style="stop-color:#C2C2C2"/>
						<stop  offset="0.951" style="stop-color:#B7B7B7"/>
						<stop  offset="0.9682" style="stop-color:#999999"/>
						<stop  offset="0.9909" style="stop-color:#686868"/>
						<stop  offset="1" style="stop-color:#535353"/>
					</radialGradient>
					<path class="st10" d="M23.98,56.5c0.23,0.22,0.27,0.56,0.1,0.74l-1.6,1.64c-0.18,0.18-0.51,0.14-0.74-0.08l-4.41-4.3
						c-0.23-0.22-0.27-0.56-0.1-0.74l1.6-1.64c0.18-0.18,0.51-0.14,0.74,0.08L23.98,56.5z"/>
				</g>
				<g>
					
						<radialGradient id="SVGID_13_" cx="29.9623" cy="42.6129" r="26.4863" gradientTransform="matrix(0.3995 0.9167 -0.9167 0.3995 65.554 -7.0643)" gradientUnits="userSpaceOnUse">
						<stop  offset="0.8978" style="stop-color:#A1A1A1"/>
						<stop  offset="0.9019" style="stop-color:#ABABAB"/>
						<stop  offset="0.9097" style="stop-color:#B8B8B8"/>
						<stop  offset="0.9199" style="stop-color:#C0C0C0"/>
						<stop  offset="0.9412" style="stop-color:#C2C2C2"/>
						<stop  offset="0.951" style="stop-color:#B7B7B7"/>
						<stop  offset="0.9682" style="stop-color:#999999"/>
						<stop  offset="0.9909" style="stop-color:#686868"/>
						<stop  offset="1" style="stop-color:#535353"/>
					</radialGradient>
					<path class="st11" d="M61.09,30.88c0.13,0.29,0.42,0.45,0.65,0.35l2.1-0.92c0.23-0.1,0.31-0.42,0.19-0.72l-2.46-5.65
						c-0.13-0.29-0.42-0.45-0.65-0.35l-2.1,0.92c-0.23,0.1-0.31,0.42-0.19,0.72L61.09,30.88z"/>
					
						<radialGradient id="SVGID_14_" cx="30.7819" cy="361.5806" r="26.4862" gradientTransform="matrix(0.3995 0.9167 0.9167 -0.3995 -305.702 153.8333)" gradientUnits="userSpaceOnUse">
						<stop  offset="0.8978" style="stop-color:#A1A1A1"/>
						<stop  offset="0.9019" style="stop-color:#ABABAB"/>
						<stop  offset="0.9097" style="stop-color:#B8B8B8"/>
						<stop  offset="0.9199" style="stop-color:#C0C0C0"/>
						<stop  offset="0.9412" style="stop-color:#C2C2C2"/>
						<stop  offset="0.951" style="stop-color:#B7B7B7"/>
						<stop  offset="0.9682" style="stop-color:#999999"/>
						<stop  offset="0.9909" style="stop-color:#686868"/>
						<stop  offset="1" style="stop-color:#535353"/>
					</radialGradient>
					<path class="st12" d="M17.86,49.72c0.13,0.29,0.04,0.62-0.19,0.72l-2.1,0.92c-0.23,0.1-0.52-0.06-0.65-0.35l-2.46-5.65
						c-0.13-0.29-0.04-0.62,0.19-0.72l2.1-0.92c0.23-0.1,0.52,0.06,0.65,0.35L17.86,49.72z"/>
				</g>
				<g>
					
						<radialGradient id="SVGID_15_" cx="29.3601" cy="45.0746" r="26.4837" gradientTransform="matrix(0.0243 0.9997 -0.9997 0.0243 82.8129 7.0638)" gradientUnits="userSpaceOnUse">
						<stop  offset="0.8978" style="stop-color:#A1A1A1"/>
						<stop  offset="0.9019" style="stop-color:#ABABAB"/>
						<stop  offset="0.9097" style="stop-color:#B8B8B8"/>
						<stop  offset="0.9199" style="stop-color:#C0C0C0"/>
						<stop  offset="0.9412" style="stop-color:#C2C2C2"/>
						<stop  offset="0.951" style="stop-color:#B7B7B7"/>
						<stop  offset="0.9682" style="stop-color:#999999"/>
						<stop  offset="0.9909" style="stop-color:#686868"/>
						<stop  offset="1" style="stop-color:#535353"/>
					</radialGradient>
					<path class="st13" d="M61.89,39.98c0.01,0.32,0.22,0.58,0.47,0.57l2.29-0.06c0.25-0.01,0.45-0.27,0.44-0.6l-0.15-6.16
						c-0.01-0.32-0.22-0.58-0.47-0.57l-2.29,0.06c-0.25,0.01-0.45,0.27-0.44,0.6L61.89,39.98z"/>
					
						<radialGradient id="SVGID_16_" cx="29.1493" cy="358.6855" r="26.4837" gradientTransform="matrix(0.0243 0.9997 0.9997 -0.0243 -321.2644 17.0973)" gradientUnits="userSpaceOnUse">
						<stop  offset="0.8978" style="stop-color:#A1A1A1"/>
						<stop  offset="0.9019" style="stop-color:#ABABAB"/>
						<stop  offset="0.9097" style="stop-color:#B8B8B8"/>
						<stop  offset="0.9199" style="stop-color:#C0C0C0"/>
						<stop  offset="0.9412" style="stop-color:#C2C2C2"/>
						<stop  offset="0.951" style="stop-color:#B7B7B7"/>
						<stop  offset="0.9682" style="stop-color:#999999"/>
						<stop  offset="0.9909" style="stop-color:#686868"/>
						<stop  offset="1" style="stop-color:#535353"/>
					</radialGradient>
					<path class="st14" d="M14.74,41.13c0.01,0.32-0.19,0.59-0.44,0.6l-2.29,0.06c-0.25,0.01-0.46-0.25-0.47-0.57l-0.15-6.16
						c-0.01-0.32,0.19-0.59,0.44-0.6l2.29-0.06c0.25-0.01,0.46,0.25,0.47,0.57L14.74,41.13z"/>
				</g>
				<g>
					
						<radialGradient id="SVGID_17_" cx="29.2541" cy="48.6636" r="26.4844" gradientTransform="matrix(-0.3544 0.9351 -0.9351 -0.3544 94.3077 27.4835)" gradientUnits="userSpaceOnUse">
						<stop  offset="0.8978" style="stop-color:#A1A1A1"/>
						<stop  offset="0.9019" style="stop-color:#ABABAB"/>
						<stop  offset="0.9097" style="stop-color:#B8B8B8"/>
						<stop  offset="0.9199" style="stop-color:#C0C0C0"/>
						<stop  offset="0.9412" style="stop-color:#C2C2C2"/>
						<stop  offset="0.951" style="stop-color:#B7B7B7"/>
						<stop  offset="0.9682" style="stop-color:#999999"/>
						<stop  offset="0.9909" style="stop-color:#686868"/>
						<stop  offset="1" style="stop-color:#535353"/>
					</radialGradient>
					<path class="st15" d="M59.2,48.72c-0.11,0.3-0.01,0.62,0.22,0.71l2.14,0.81c0.24,0.09,0.52-0.08,0.63-0.38l2.18-5.76
						c0.11-0.3,0.01-0.62-0.22-0.71l-2.14-0.81c-0.24-0.09-0.52,0.08-0.63,0.38L59.2,48.72z"/>
					
						<radialGradient id="SVGID_18_" cx="29.8364" cy="354.9247" r="26.4845" gradientTransform="matrix(-0.3544 0.9351 0.9351 0.3544 -283.2937 -116.2509)" gradientUnits="userSpaceOnUse">
						<stop  offset="0.8978" style="stop-color:#A1A1A1"/>
						<stop  offset="0.9019" style="stop-color:#ABABAB"/>
						<stop  offset="0.9097" style="stop-color:#B8B8B8"/>
						<stop  offset="0.9199" style="stop-color:#C0C0C0"/>
						<stop  offset="0.9412" style="stop-color:#C2C2C2"/>
						<stop  offset="0.951" style="stop-color:#B7B7B7"/>
						<stop  offset="0.9682" style="stop-color:#999999"/>
						<stop  offset="0.9909" style="stop-color:#686868"/>
						<stop  offset="1" style="stop-color:#535353"/>
					</radialGradient>
					<path class="st16" d="M15.1,32c-0.11,0.3-0.4,0.47-0.63,0.38l-2.14-0.81c-0.24-0.09-0.33-0.41-0.22-0.71l2.18-5.76
						c0.11-0.3,0.4-0.47,0.63-0.38l2.14,0.81c0.24,0.09,0.33,0.41,0.22,0.71L15.1,32z"/>
				</g>
				<g>
					
						<radialGradient id="SVGID_19_" cx="31.3814" cy="51.5277" r="26.4835" gradientTransform="matrix(-0.6831 0.7303 -0.7303 -0.6831 97.4451 49.938)" gradientUnits="userSpaceOnUse">
						<stop  offset="0.8978" style="stop-color:#A1A1A1"/>
						<stop  offset="0.9019" style="stop-color:#ABABAB"/>
						<stop  offset="0.9097" style="stop-color:#B8B8B8"/>
						<stop  offset="0.9199" style="stop-color:#C0C0C0"/>
						<stop  offset="0.9412" style="stop-color:#C2C2C2"/>
						<stop  offset="0.951" style="stop-color:#B7B7B7"/>
						<stop  offset="0.9682" style="stop-color:#999999"/>
						<stop  offset="0.9909" style="stop-color:#686868"/>
						<stop  offset="1" style="stop-color:#535353"/>
					</radialGradient>
					<path class="st17" d="M53.36,55.83c-0.22,0.23-0.25,0.57-0.07,0.74l1.67,1.57c0.18,0.17,0.51,0.12,0.73-0.11l4.21-4.5
						c0.22-0.23,0.25-0.57,0.07-0.74l-1.67-1.57c-0.18-0.17-0.51-0.12-0.73,0.11L53.36,55.83z"/>
					
						<radialGradient id="SVGID_20_" cx="31.36" cy="352.5356" r="26.4835" gradientTransform="matrix(-0.6831 0.7303 0.7303 0.6831 -197.9818 -226.3658)" gradientUnits="userSpaceOnUse">
						<stop  offset="0.8978" style="stop-color:#A1A1A1"/>
						<stop  offset="0.9019" style="stop-color:#ABABAB"/>
						<stop  offset="0.9097" style="stop-color:#B8B8B8"/>
						<stop  offset="0.9199" style="stop-color:#C0C0C0"/>
						<stop  offset="0.9412" style="stop-color:#C2C2C2"/>
						<stop  offset="0.951" style="stop-color:#B7B7B7"/>
						<stop  offset="0.9682" style="stop-color:#999999"/>
						<stop  offset="0.9909" style="stop-color:#686868"/>
						<stop  offset="1" style="stop-color:#535353"/>
					</radialGradient>
					<path class="st18" d="M18.92,23.62c-0.22,0.23-0.55,0.29-0.73,0.11l-1.67-1.57c-0.18-0.17-0.15-0.5,0.07-0.74l4.21-4.5
						c0.22-0.23,0.55-0.29,0.73-0.11l1.67,1.57c0.18,0.17,0.15,0.5-0.07,0.74L18.92,23.62z"/>
				</g>
				<g>
					
						<radialGradient id="SVGID_21_" cx="33.8797" cy="53.0912" r="26.4832" gradientTransform="matrix(-0.9203 0.3913 -0.3913 -0.9203 90.2471 73.2981)" gradientUnits="userSpaceOnUse">
						<stop  offset="0.8978" style="stop-color:#A1A1A1"/>
						<stop  offset="0.9019" style="stop-color:#ABABAB"/>
						<stop  offset="0.9097" style="stop-color:#B8B8B8"/>
						<stop  offset="0.9199" style="stop-color:#C0C0C0"/>
						<stop  offset="0.9412" style="stop-color:#C2C2C2"/>
						<stop  offset="0.951" style="stop-color:#B7B7B7"/>
						<stop  offset="0.9682" style="stop-color:#999999"/>
						<stop  offset="0.9909" style="stop-color:#686868"/>
						<stop  offset="1" style="stop-color:#535353"/>
					</radialGradient>
					<path class="st19" d="M44.63,60.38c-0.3,0.13-0.46,0.42-0.36,0.65l0.9,2.11c0.1,0.23,0.42,0.32,0.72,0.19l5.67-2.41
						c0.3-0.13,0.46-0.42,0.36-0.65l-0.9-2.11c-0.1-0.23-0.42-0.32-0.72-0.19L44.63,60.38z"/>
					
						<radialGradient id="SVGID_22_" cx="33.5122" cy="350.0247" r="26.4831" gradientTransform="matrix(-0.9203 0.3913 0.3913 0.9203 -68.0046 -297.9527)" gradientUnits="userSpaceOnUse">
						<stop  offset="0.8978" style="stop-color:#A1A1A1"/>
						<stop  offset="0.9019" style="stop-color:#ABABAB"/>
						<stop  offset="0.9097" style="stop-color:#B8B8B8"/>
						<stop  offset="0.9199" style="stop-color:#C0C0C0"/>
						<stop  offset="0.9412" style="stop-color:#C2C2C2"/>
						<stop  offset="0.951" style="stop-color:#B7B7B7"/>
						<stop  offset="0.9682" style="stop-color:#999999"/>
						<stop  offset="0.9909" style="stop-color:#686868"/>
						<stop  offset="1" style="stop-color:#535353"/>
					</radialGradient>
					<path class="st20" d="M26.18,16.98c-0.3,0.13-0.62,0.04-0.72-0.19l-0.9-2.11c-0.1-0.23,0.06-0.52,0.36-0.65l5.67-2.41
						c0.3-0.13,0.62-0.04,0.72,0.19l0.9,2.11c0.1,0.23-0.06,0.52-0.36,0.65L26.18,16.98z"/>
				</g>
			</g>
		</g>
		<linearGradient id="SVGID_23_" gradientUnits="userSpaceOnUse" x1="38.2457" y1="12.989" x2="38.2457" y2="61.1649">
			<stop  offset="0.051" style="stop-color:#FFDF00"/>
			<stop  offset="0.1582" style="stop-color:#FFBD00"/>
			<stop  offset="0.2491" style="stop-color:#FCB900"/>
			<stop  offset="0.3459" style="stop-color:#F2AC00"/>
			<stop  offset="0.4451" style="stop-color:#E39700"/>
			<stop  offset="0.4779" style="stop-color:#DC8E00"/>
			<stop  offset="0.5044" style="stop-color:#DD9000"/>
			<stop  offset="0.514" style="stop-color:#E19700"/>
			<stop  offset="0.5208" style="stop-color:#E8A200"/>
			<stop  offset="0.5263" style="stop-color:#F2B300"/>
			<stop  offset="0.531" style="stop-color:#FEC900"/>
			<stop  offset="0.5312" style="stop-color:#FFCA00"/>
			<stop  offset="0.5368" style="stop-color:#E3A800"/>
			<stop  offset="0.543" style="stop-color:#CA8A00"/>
			<stop  offset="0.55" style="stop-color:#B57100"/>
			<stop  offset="0.5577" style="stop-color:#A55E00"/>
			<stop  offset="0.5667" style="stop-color:#995000"/>
			<stop  offset="0.578" style="stop-color:#934800"/>
			<stop  offset="0.5994" style="stop-color:#914600"/>
			<stop  offset="0.7245" style="stop-color:#E78E00"/>
			<stop  offset="0.7324" style="stop-color:#DF8700"/>
			<stop  offset="0.7689" style="stop-color:#BD6B00"/>
			<stop  offset="0.8037" style="stop-color:#A55700"/>
			<stop  offset="0.8357" style="stop-color:#964A00"/>
			<stop  offset="0.8622" style="stop-color:#914600"/>
			<stop  offset="0.916" style="stop-color:#934700"/>
			<stop  offset="0.9372" style="stop-color:#9A4B00"/>
			<stop  offset="0.9527" style="stop-color:#A65300"/>
			<stop  offset="0.9655" style="stop-color:#B75E00"/>
			<stop  offset="0.9763" style="stop-color:#CE6B00"/>
			<stop  offset="0.9851" style="stop-color:#E67A00"/>
		</linearGradient>
		<circle class="st21" cx="38.25" cy="37.53" r="23.8"/>
		<linearGradient id="SVGID_24_" gradientUnits="userSpaceOnUse" x1="38.2457" y1="14.4" x2="38.2457" y2="59.818">
			<stop  offset="0" style="stop-color:#FFFFFF"/>
			<stop  offset="2.403617e-03" style="stop-color:#FFFFFF"/>
			<stop  offset="0.2051" style="stop-color:#E0E0E0"/>
			<stop  offset="0.3781" style="stop-color:#CECECE"/>
			<stop  offset="0.5" style="stop-color:#C7C7C7"/>
			<stop  offset="0.7275" style="stop-color:#DEDEDE"/>
			<stop  offset="1" style="stop-color:#FFFFFF"/>
		</linearGradient>
		<circle class="st22" cx="38.25" cy="37.53" r="22.6"/>
		<radialGradient id="SVGID_25_" cx="38.2457" cy="37.5276" r="20.944" gradientUnits="userSpaceOnUse">
			<stop  offset="0.9235" style="stop-color:#270000"/>
			<stop  offset="0.942" style="stop-color:#1B0000"/>
			<stop  offset="0.9701" style="stop-color:#100000"/>
			<stop  offset="1" style="stop-color:#0C0000"/>
		</radialGradient>
		<circle class="st23" cx="38.25" cy="37.53" r="20.94"/>
		
			<radialGradient id="SVGID_26_" cx="42.937" cy="37.2706" r="34.8497" gradientTransform="matrix(0.8506 -0.5258 0.5258 0.8506 -19.0576 26.7798)" gradientUnits="userSpaceOnUse">
			<stop  offset="0.8367" style="stop-color:#CF0000"/>
			<stop  offset="0.9643" style="stop-color:#CF0000"/>
			<stop  offset="0.9757" style="stop-color:#DA0000"/>
			<stop  offset="0.9959" style="stop-color:#F80000"/>
			<stop  offset="1" style="stop-color:#FF0000"/>
		</radialGradient>
		<path class="st24" d="M11.01,13.24l5.06,4.99c0,0,0.99,0.61,1.84-0.17c0,0,4.58-5.07,11.75-7.28c1.38-0.53,1.05-1.6,1.05-1.6
			l-2.22-6.78C28.48,2.41,18.66,4.62,11.01,13.24z"/>
		
			<radialGradient id="SVGID_27_" cx="31.9016" cy="428.5831" r="34.8498" gradientTransform="matrix(-0.8506 0.5258 -0.5258 -0.8506 291.7929 387.0219)" gradientUnits="userSpaceOnUse">
			<stop  offset="0.8367" style="stop-color:#CF0000"/>
			<stop  offset="0.9592" style="stop-color:#CF0000"/>
			<stop  offset="1" style="stop-color:#680000"/>
		</radialGradient>
		<path class="st25" d="M65.36,61.91l-5.06-4.99c0,0-0.99-0.61-1.84,0.17c0,0-4.58,5.07-11.75,7.28c-1.38,0.53-1.05,1.6-1.05,1.6
			l2.22,6.78C47.89,72.74,57.71,70.53,65.36,61.91z"/>
		
			<radialGradient id="SVGID_28_" cx="33.4544" cy="35.7639" r="34.8489" gradientTransform="matrix(0.8577 0.5142 -0.5142 0.8577 28.9138 -12.1412)" gradientUnits="userSpaceOnUse">
			<stop  offset="0.8367" style="stop-color:#CF0000"/>
			<stop  offset="0.9643" style="stop-color:#CF0000"/>
			<stop  offset="0.9757" style="stop-color:#DA0000"/>
			<stop  offset="0.9959" style="stop-color:#F80000"/>
			<stop  offset="1" style="stop-color:#FF0000"/>
		</radialGradient>
		<path class="st26" d="M47.39,2.18l-2.11,6.79c0,0-0.09,1.16,0.99,1.56c0,0,6.61,1.74,11.86,7.09c1.11,0.98,1.9,0.2,1.9,0.2l5-5.08
			C65.04,12.73,58.56,5.02,47.39,2.18z"/>
		<linearGradient id="SVGID_29_" gradientUnits="userSpaceOnUse" x1="38.2457" y1="0.1886" x2="38.2457" y2="73.515">
			<stop  offset="0" style="stop-color:#FFFFFF"/>
			<stop  offset="0.2755" style="stop-color:#FFFFFF"/>
			<stop  offset="0.4241" style="stop-color:#E8E8E8"/>
			<stop  offset="0.4297" style="stop-color:#E7E7E7"/>
			<stop  offset="0.5788" style="stop-color:#CBCBCB"/>
			<stop  offset="0.8986" style="stop-color:#858585"/>
			<stop  offset="0.9745" style="stop-color:#737373"/>
		</linearGradient>
		<path class="st27" d="M38.25,1.03c-20.16,0-36.49,16.34-36.49,36.49s16.34,36.49,36.49,36.49s36.49-16.34,36.49-36.49
			S58.4,1.03,38.25,1.03z M38.25,73.36c-19.79,0-35.83-16.04-35.83-35.83S18.46,1.7,38.25,1.7s35.83,16.04,35.83,35.83
			S58.03,73.36,38.25,73.36z"/>
		
			<radialGradient id="SVGID_30_" cx="41.1546" cy="429.2873" r="34.8489" gradientTransform="matrix(-0.8577 -0.5142 0.5142 -0.8577 -148.2507 428.6206)" gradientUnits="userSpaceOnUse">
			<stop  offset="0.8367" style="stop-color:#CF0000"/>
			<stop  offset="0.9592" style="stop-color:#CF0000"/>
			<stop  offset="1" style="stop-color:#680000"/>
		</radialGradient>
		<path class="st28" d="M29.02,72.81l2.11-6.79c0,0,0.09-1.16-0.99-1.56c0,0-6.61-1.74-11.86-7.09c-1.11-0.98-1.9-0.2-1.9-0.2
			l-5,5.08C11.37,62.26,17.85,69.98,29.02,72.81z"/>
		
			<radialGradient id="SVGID_31_" cx="46.2202" cy="45.5157" r="34.849" gradientTransform="matrix(0 -1 1 0 -9.3139 83.8139)" gradientUnits="userSpaceOnUse">
			<stop  offset="0.8367" style="stop-color:#CF0000"/>
			<stop  offset="0.9643" style="stop-color:#CF0000"/>
			<stop  offset="0.9682" style="stop-color:#D20B0B"/>
			<stop  offset="0.9751" style="stop-color:#D92929"/>
			<stop  offset="0.9843" style="stop-color:#E65A5A"/>
			<stop  offset="0.9952" style="stop-color:#F79D9D"/>
			<stop  offset="1" style="stop-color:#FFBDBD"/>
		</radialGradient>
		<path class="st29" d="M3.22,47.83l6.91-1.68c0,0,1.04-0.52,0.83-1.65c0,0-1.91-6.56-0.02-13.82c0.27-1.45-0.81-1.73-0.81-1.73
			L3.2,27.28C3.2,27.28-0.09,36.8,3.22,47.83z"/>
		
			<radialGradient id="SVGID_32_" cx="28.2028" cy="420.5304" r="34.849" gradientTransform="matrix(0 1 -1 0 460.8139 9.3139)" gradientUnits="userSpaceOnUse">
			<stop  offset="0.8367" style="stop-color:#CF0000"/>
			<stop  offset="0.9592" style="stop-color:#CF0000"/>
			<stop  offset="1" style="stop-color:#7D0000"/>
		</radialGradient>
		<path class="st30" d="M73.26,27.28l-6.91,1.68c0,0-1.04,0.52-0.83,1.65c0,0,1.91,6.56,0.02,13.82c-0.27,1.45,0.81,1.73,0.81,1.73
			l6.93,1.68C73.29,47.83,76.57,38.31,73.26,27.28z"/>
	</g>
</g>
<g>
	<polygon class="st31" points="25.91,24.27 26.19,25.04 27.01,25.07 26.37,25.58 26.59,26.36 25.91,25.91 25.23,26.36 25.45,25.58 
		24.81,25.07 25.63,25.04 	"/>
	<polygon class="st31" points="52.5,24.27 52.79,25.04 53.61,25.07 52.96,25.58 53.19,26.36 52.5,25.91 51.82,26.36 52.05,25.58 
		51.4,25.07 52.22,25.04 	"/>
	<polygon class="st31" points="25.91,49.42 26.19,50.18 27.01,50.22 26.37,50.72 26.59,51.51 25.91,51.05 25.23,51.51 25.45,50.72 
		24.81,50.22 25.63,50.18 	"/>
	<polygon class="st31" points="52.5,49.42 52.79,50.18 53.61,50.22 52.96,50.72 53.19,51.51 52.5,51.05 51.82,51.51 52.05,50.72 
		51.4,50.22 52.22,50.18 	"/>
</g>
</svg>
